<svg xmlns="http://www.w3.org/2000/svg" xmlns:xlink="http://www.w3.org/1999/xlink" width="401" height="357" viewBox="0 0 401 357">
  <defs>
    <linearGradient id="linear-gradient" x1="0.031" y1="0.364" x2="0.935" y2="1.312" gradientUnits="objectBoundingBox">
      <stop offset="0" stop-color="#f60"/>
      <stop offset="0.473" stop-color="#fba405"/>
      <stop offset="1" stop-color="#fdab29"/>
    </linearGradient>
  </defs>
  <g id="md-img" transform="translate(66 42)">
    <ellipse id="Ellipse_110" data-name="Ellipse 110" cx="200.5" cy="178.5" rx="200.5" ry="178.5" transform="translate(-66 -42)" fill="url(#linear-gradient)"/>
    <g id="Group_11" data-name="Group 11" transform="translate(290.112 25.768)">
      <path id="Path_158" data-name="Path 158" d="M1065.082,115.067c.146.15.286.3.414.46a8.487,8.487,0,1,1-14.631,7.871,7.836,7.836,0,0,1-.254-1.154,8.485,8.485,0,0,1,13.965-7.65C1064.752,114.741,1064.922,114.9,1065.082,115.067Z" transform="translate(-1050.519 -112.505)" fill="#fff"/>
      <path id="Path_159" data-name="Path 159" d="M1076.147,119.866c.146.15.286.3.414.46L1066.4,128.1l9.245-8.712C1075.817,119.541,1075.987,119.7,1076.147,119.866Z" transform="translate(-1061.584 -117.305)" fill="#f60"/>
      <path id="Path_160" data-name="Path 160" d="M1080.787,138.039l-7.427,9.221a8.5,8.5,0,0,1-1.478-.231Z" transform="translate(-1065.405 -130.299)" fill="#f60"/>
      <path id="Path_161" data-name="Path 161" d="M1057.171,123.526l-6.084,7.551a7.8,7.8,0,0,1-.253-1.154Z" transform="translate(-1050.739 -120.185)" fill="#f60"/>
    </g>
    <g id="Group_10" data-name="Group 10" transform="translate(0 0)">
      <path id="Path_146" data-name="Path 146" d="M658.54,109.444a52.18,52.18,0,0,1-6.905,26.955,53.872,53.872,0,0,1-4.908,7.048c-16.1,19.695-46.04,30.474-73.1,47.935-79.87,51.539-88.522-31.047-84.915-81.938A90.8,90.8,0,0,1,510.87,55.7a84.332,84.332,0,0,1,8.624-8.479A82.6,82.6,0,0,1,573.628,27.5c36.161,0,67.042,21.811,79.285,52.546a79.375,79.375,0,0,1,5.626,29.4Z" transform="translate(-368.439 -27.503)" fill="#fff"/>
      <path id="Path_147" data-name="Path 147" d="M644.194,88.423l-80.85,9.728a84.344,84.344,0,0,1,8.624-8.479Z" transform="translate(-420.912 -69.956)" fill="#f60"/>
      <path id="Path_148" data-name="Path 148" d="M857.212,383.785a53.853,53.853,0,0,1-4.908,7.048L783.05,382.5Z" transform="translate(-574.017 -274.889)" fill="#f60"/>
      <path id="Path_149" data-name="Path 149" d="M771.422,193.727,654.05,178.5,768.6,185.275A78.979,78.979,0,0,1,771.422,193.727Z" transform="translate(-484.122 -132.729)" fill="#f60"/>
      <path id="Path_150" data-name="Path 150" d="M477.494,79.992c0,.209-.006.415-.024.618A8.487,8.487,0,1,1,461.5,76.03a7.811,7.811,0,0,1,.625-1A8.484,8.484,0,0,1,477.464,79.3C477.485,79.528,477.494,79.758,477.494,79.992Z" transform="translate(-349.257 -58.165)" fill="#fff"/>
      <path id="Path_151" data-name="Path 151" d="M487.251,97.414c0,.209-.006.415-.024.618L474.519,96.5l12.7.218C487.242,96.95,487.251,97.181,487.251,97.414Z" transform="translate(-359.014 -75.588)" fill="#f60"/>
      <path id="Path_152" data-name="Path 152" d="M477.432,113.615l-11.756,1.416a8.508,8.508,0,0,1-.9-1.2Z" transform="translate(-352.226 -87.511)" fill="#f60"/>
      <path id="Path_153" data-name="Path 153" d="M473.387,82.615l-9.628,1.158a7.8,7.8,0,0,1,.625-1Z" transform="translate(-351.515 -65.908)" fill="#f60"/>
      <path id="Path_154" data-name="Path 154" d="M863.5,574.974c-.1.185-.2.364-.311.535a8.487,8.487,0,1,1-11.959-11.532,7.806,7.806,0,0,1,1.022-.594A8.484,8.484,0,0,1,863.8,574.349C863.711,574.559,863.611,574.767,863.5,574.974Z" transform="translate(-618.941 -400.328)" fill="#fff"/>
      <path id="Path_155" data-name="Path 155" d="M875.378,588.064c-.1.185-.2.364-.311.535l-10.509-7.307,11.117,6.147C875.587,587.65,875.487,587.857,875.378,588.064Z" transform="translate(-630.817 -413.418)" fill="#f60"/>
      <path id="Path_156" data-name="Path 156" d="M858.876,598.214l-11.047-4.26a8.5,8.5,0,0,1-.231-1.478Z" transform="translate(-618.998 -421.211)" fill="#f60"/>
      <path id="Path_157" data-name="Path 157" d="M868.821,569.479l-9.047-3.49a7.8,7.8,0,0,1,1.022-.594Z" transform="translate(-627.484 -402.34)" fill="#f60"/>
      <path id="Path_162" data-name="Path 162" d="M567.914,636.956s18.626.776,18.626,5.433-20.955,0-20.955,0Z" transform="translate(-422.474 -452.208)" fill="#ffe8d3"/>
      <path id="Path_163" data-name="Path 163" d="M300.9,645.54l-34.924-2.328-1.552-18.626-7.761,16.3-34.148-4.657c.776-29.492,13.194-58.207,13.97-62.088s2.631-19.915,2.631-19.915c3.392-7.194,21.164-7.87,35.1-7.218,5.774.264,10.9.761,14.055,1.117,2.088.233,3.322.4,3.322.4,5.565,5.735,9.15,13.551,11.354,22.282C310.888,602.265,300.9,645.54,300.9,645.54Z" transform="translate(-183.4 -389.392)" fill="#445f60"/>
      <circle id="Ellipse_109" data-name="Ellipse 109" cx="19.403" cy="19.403" r="19.403" transform="translate(59.292 37.289)" fill="#ffe8d3"/>
      <path id="Path_164" data-name="Path 164" d="M274.81,229.879s-5.433,24.059-13.97,31.044,33.372,0,33.372,0-9.313-15.522-2.328-22.507S274.81,229.879,274.81,229.879Z" transform="translate(-209.309 -168.531)" fill="#ffe8d3"/>
      <path id="Path_165" data-name="Path 165" d="M288.243,380.96l-12.875,1.428-36.019,4s-.171-.458-.473-1.288c-2.615-7.132-15.212-41.84-16.6-52.263C220.722,321.2,237.02,307.23,237.02,307.23s15.522-3.1,20.179-3.1,23.283,6.985,23.283,6.985l6.946,62.484.6,5.409Z" transform="translate(-183.161 -220.271)" fill="#eefcfc"/>
      <path id="Path_166" data-name="Path 166" d="M392,476.644l-26.1-15.3s-.458-1.49-1.234-4c-.388-1.257-.861-2.778-1.4-4.5-3.011-9.67-8.064-25.627-12.115-37.284-6.209-17.85,24.059,31.82,24.059,31.82l1.513,1.172.6,5.409c2.088.233,3.322.4,3.322.4C386.212,460.1,389.8,467.913,392,476.644Z" transform="translate(-272.461 -295.226)" opacity="0.15"/>
      <path id="Path_167" data-name="Path 167" d="M364.464,327.01s-7.761,10.089-1.552,27.94,14.746,45.79,14.746,45.79l45.014,26.387,6.209-7.761-41.909-32.6s-1.552-58.984-9.313-61.312A15.905,15.905,0,0,0,364.464,327.01Z" transform="translate(-279.561 -234.618)" fill="#eefcfc"/>
      <path id="Path_168" data-name="Path 168" d="M246.836,543.82S257.7,566.327,262.358,564s-11.642-25.611-11.642-25.611Z" transform="translate(-200.35 -383.519)" fill="#ffe8d3"/>
      <path id="Path_169" data-name="Path 169" d="M138.807,352.77,97.674,386.918s-15.522,10.865,13.194,18.626,31.044,12.418,31.044,12.418,3.1-10.089,6.985-8.537l-33.372-16.3,27.163-16.3Z" transform="translate(-93.485 -254.17)" fill="#eefcfc"/>
      <path id="Path_170" data-name="Path 170" d="M167.054,160.776a109.581,109.581,0,0,0,10.987-5.826c-.285-8.457.757-16.134,3.805-20.2,1.711-3.885,5.3-7.775,8.118-10.838,6.911-7.522,22.193-11.721,24.9-7.963,20.5.4,22.658,16.473,22.658,16.473-.107,6.721-7.092,6.934-13.211,6.689.548,4.588-.912,9.356-5.141,11.47-8.086,4.043-10.512,9.3-6.469,12.938s11.321,13.343,1.617,15.769-10.917,7.278-8.086,9.3-6.469-3.639-6.469-3.639-1.617,9.7-10.108,7.278a5.108,5.108,0,0,1-2.269-1.608c-2.293,2.52-4.339,4.009-5.881,4.018-8.83.047-7.772-9.734-7.772-9.734s-10.481,2.944-7.211,1.76,3.411-6.183-5.28-11.135S162.18,163.19,167.054,160.776Z" transform="translate(-138.264 -88.16)" fill="#445f60"/>
      <path id="Path_171" data-name="Path 171" d="M545.113,260.441l-.141-.019.343,1.305a34.323,34.323,0,0,0,1.409,5.358L556.8,305.375a6.49,6.49,0,0,0,5.284,4.762l20.54,3.178a6.49,6.49,0,0,0,6.713-3.35l19.52-36.46a34.253,34.253,0,0,0,1.67-3.119l.663-1.238-.1-.014a34.511,34.511,0,1,0-65.971-8.693Z" transform="translate(-407.979 -162.473)" fill="#445f60"/>
      <path id="Path_172" data-name="Path 172" d="M579.765,310.349a7.059,7.059,0,0,1-1.08-.083l-21.471-3.322a7.085,7.085,0,0,1-5.77-5.2l-10.528-40.022a36.082,36.082,0,0,1-1.479-5.625l-.266-1.751a36.384,36.384,0,0,1,41.649-40.579l-.093.6a35.791,35.791,0,0,0-40.9,40.291l.2,1.31a35.852,35.852,0,0,0,1.466,5.578l10.535,40.045a6.478,6.478,0,0,0,5.276,4.755l21.471,3.322a6.489,6.489,0,0,0,6.7-3.345l.535.286A7.1,7.1,0,0,1,579.765,310.349Z" transform="translate(-403.862 -157.006)" fill="#fff"/>
      <rect id="Rectangle_56" data-name="Rectangle 56" width="37.987" height="0.784" transform="translate(168.286 142.342) rotate(-69.885)" fill="#fff"/>
      <rect id="Rectangle_57" data-name="Rectangle 57" width="0.784" height="37.987" transform="translate(159.237 103.404) rotate(-2.516)" fill="#fff"/>
      <path id="Path_173" data-name="Path 173" d="M603,579.845l-27.512-4.256a.784.784,0,1,1,.24-1.55l27.512,4.256a.784.784,0,0,1-.24,1.55Z" transform="translate(-428.914 -408.357)" fill="#3f3d56"/>
      <path id="Path_174" data-name="Path 174" d="M605.329,560.571l-27.512-4.256a.784.784,0,0,1,.24-1.55l27.512,4.256a.784.784,0,0,1-.24,1.55Z" transform="translate(-430.535 -394.926)" fill="#3f3d56"/>
      <path id="Path_175" data-name="Path 175" d="M607.656,541.3l-27.512-4.256a.784.784,0,1,1,.24-1.55l27.512,4.256a.784.784,0,0,1-.24,1.55Z" transform="translate(-432.157 -381.496)" fill="#3f3d56"/>
      <path id="Path_176" data-name="Path 176" d="M599.146,585.3c5.457.844,10.352-1.513,10.932-5.265l-19.762-3.057C589.736,580.728,593.689,584.454,599.146,585.3Z" transform="translate(-439.669 -410.411)" fill="#3f3d56"/>
      <path id="Path_177" data-name="Path 177" d="M625.962,342.393a4.831,4.831,0,0,1-2.677-1.731c-.175-.2-.345-.415-.515-.627a6.123,6.123,0,0,0-2.021-1.881c-1.8-.84-3.92.333-5.756,1.591l-.444-.647c2.019-1.384,4.372-2.662,6.531-1.656a6.8,6.8,0,0,1,2.3,2.1c.165.206.33.411.5.609.554.647,1.658,1.694,2.841,1.453a3.82,3.82,0,0,0,1.363-.721,7.294,7.294,0,0,1,.964-.609,3.84,3.84,0,0,1,4.216.6,7.6,7.6,0,0,1,.572.605,1.952,1.952,0,0,0,3.155.371,4.055,4.055,0,0,1,2.373-.711l.085.012c1.545.239,2.257,1.947,2.66,3.222l-.748.236c-.548-1.733-1.214-2.595-2.088-2.691a3.448,3.448,0,0,0-1.909.622,2.676,2.676,0,0,1-4.117-.544,6.923,6.923,0,0,0-.512-.544,3.082,3.082,0,0,0-3.338-.472,6.627,6.627,0,0,0-.86.546,4.455,4.455,0,0,1-1.658.85A2.578,2.578,0,0,1,625.962,342.393Z" transform="translate(-456.595 -243.237)" fill="#fff"/>
    </g>
  </g>
</svg>
