<svg xmlns="http://www.w3.org/2000/svg" width="489.291" height="408.131" viewBox="0 0 489.291 408.131">
  <g id="undraw_new_ideas_jdea" transform="translate(0 0)">
    <g id="Group_11" data-name="Group 11" transform="translate(462.246 41.056)">
      <path id="Path_158" data-name="Path 158" d="M1073.723,116.586c.233.239.455.48.66.732a13.523,13.523,0,1,1-23.311,12.541,12.43,12.43,0,0,1-.4-1.839,13.519,13.519,0,0,1,22.251-12.188C1073.2,116.068,1073.467,116.32,1073.723,116.586Z" transform="translate(-1050.519 -112.505)" fill="#fff"/>
      <path id="Path_159" data-name="Path 159" d="M1081.932,120.147c.233.239.455.48.66.732L1066.4,133.274l14.731-13.881C1081.405,119.629,1081.676,119.881,1081.932,120.147Z" transform="translate(-1058.728 -116.066)" fill="#f60"/>
      <path id="Path_160" data-name="Path 160" d="M1086.071,138.039l-11.834,14.693a13.55,13.55,0,0,1-2.356-.368Z" transform="translate(-1061.563 -125.706)" fill="#f60"/>
      <path id="Path_161" data-name="Path 161" d="M1060.932,123.526l-9.694,12.031a12.445,12.445,0,0,1-.4-1.839Z" transform="translate(-1050.682 -118.203)" fill="#f60"/>
    </g>
    <g id="Group_10" data-name="Group 10" transform="translate(0 0)">
      <path id="Path_146" data-name="Path 146" d="M759.7,158.062c0,16.987-4.023,30.97-11,42.948a85.827,85.827,0,0,1-7.82,11.23c-25.657,31.38-73.358,48.556-116.47,76.377-127.261,82.12-141.045-49.469-135.3-130.555,2.318-32.718,15.06-62.688,35.3-85.636a134.376,134.376,0,0,1,13.741-13.51A131.617,131.617,0,0,1,624.408,27.5c57.617,0,106.82,34.752,126.328,83.723a126.474,126.474,0,0,1,8.964,46.836Z" transform="translate(-297.473 -27.503)" fill="#fff"/>
      <path id="Path_147" data-name="Path 147" d="M692.165,88.423l-128.821,15.5a134.381,134.381,0,0,1,13.741-13.51Z" transform="translate(-336.402 -58.999)" fill="#f60"/>
      <path id="Path_148" data-name="Path 148" d="M901.216,384.546a85.811,85.811,0,0,1-7.82,11.23L783.05,382.5Z" transform="translate(-449.991 -211.038)" fill="#f60"/>
      <path id="Path_149" data-name="Path 149" d="M841.063,202.759,654.05,178.5l182.511,10.79A125.816,125.816,0,0,1,841.063,202.759Z" transform="translate(-383.298 -105.57)" fill="#f60"/>
      <path id="Path_150" data-name="Path 150" d="M487.567,85.028c0,.333-.01.662-.039.985a13.523,13.523,0,1,1-25.444-7.3,12.44,12.44,0,0,1,.995-1.6,13.519,13.519,0,0,1,24.44,6.81C487.552,84.289,487.567,84.656,487.567,85.028Z" transform="translate(-283.242 -50.251)" fill="#fff"/>
      <path id="Path_151" data-name="Path 151" d="M494.8,97.954c0,.333-.01.662-.039.985L474.519,96.5l20.238.348C494.79,97.215,494.8,97.582,494.8,97.954Z" transform="translate(-290.48 -63.177)" fill="#f60"/>
      <path id="Path_152" data-name="Path 152" d="M484.939,113.615l-18.731,2.256a13.553,13.553,0,0,1-1.43-1.908Z" transform="translate(-285.444 -72.023)" fill="#f60"/>
      <path id="Path_153" data-name="Path 153" d="M479.1,82.615l-15.34,1.845a12.429,12.429,0,0,1,.995-1.6Z" transform="translate(-284.917 -55.996)" fill="#f60"/>
      <path id="Path_154" data-name="Path 154" d="M872.987,582.37c-.156.294-.319.58-.5.852a13.523,13.523,0,1,1-19.054-18.374,12.419,12.419,0,0,1,1.628-.946,13.519,13.519,0,0,1,18.4,17.472C873.32,581.71,873.161,582.041,872.987,582.37Z" transform="translate(-483.319 -304.101)" fill="#fff"/>
      <path id="Path_155" data-name="Path 155" d="M881.8,592.082c-.156.294-.319.58-.5.852l-16.744-11.642,17.713,9.794C882.132,591.422,881.972,591.753,881.8,592.082Z" transform="translate(-492.13 -313.812)" fill="#f60"/>
      <path id="Path_156" data-name="Path 156" d="M865.568,601.619l-17.6-6.788a13.549,13.549,0,0,1-.369-2.355Z" transform="translate(-483.361 -319.594)" fill="#f60"/>
      <path id="Path_157" data-name="Path 157" d="M874.189,571.9l-14.415-5.561a12.429,12.429,0,0,1,1.628-.946Z" transform="translate(-489.657 -305.594)" fill="#f60"/>
      <path id="Path_162" data-name="Path 162" d="M569.3,636.956s29.678,1.237,29.678,8.656-33.388,0-33.388,0Z" transform="translate(-337.561 -342.591)" fill="#ffe8d3"/>
      <path id="Path_163" data-name="Path 163" d="M347.409,704.119l-55.646-3.71-2.473-29.678L276.924,696.7l-54.41-7.419c1.237-46.99,21.022-92.744,22.259-98.927s4.192-31.731,4.192-31.731c5.4-11.463,33.722-12.539,55.919-11.5,9.2.42,17.362,1.212,22.395,1.781,3.326.371,5.293.643,5.293.643,8.866,9.138,14.579,21.591,18.091,35.5C363.324,635.167,347.409,704.119,347.409,704.119Z" transform="translate(-160.193 -295.987)" fill="#445f60"/>
      <circle id="Ellipse_109" data-name="Ellipse 109" cx="30.915" cy="30.915" r="30.915" transform="translate(94.472 59.413)" fill="#ffe8d3"/>
      <path id="Path_164" data-name="Path 164" d="M283.779,229.879s-8.656,38.334-22.259,49.463,53.173,0,53.173,0-14.839-24.732-3.71-35.861S283.779,229.879,283.779,229.879Z" transform="translate(-179.414 -132.132)" fill="#ffe8d3"/>
      <path id="Path_165" data-name="Path 165" d="M327.446,426.548l-20.515,2.275-57.39,6.381s-.272-.73-.754-2.053c-4.167-11.364-24.237-66.664-26.451-83.272-2.473-18.549,23.5-40.807,23.5-40.807s24.732-4.946,32.151-4.946,37.1,11.129,37.1,11.129l11.067,99.558.952,8.619Z" transform="translate(-160.015 -170.517)" fill="#eefcfc"/>
      <path id="Path_166" data-name="Path 166" d="M416.736,515.186l-41.587-24.373s-.73-2.374-1.966-6.381c-.618-2-1.372-4.427-2.226-7.172-4.8-15.408-12.848-40.832-19.3-59.406-9.893-28.442,38.334,50.7,38.334,50.7l2.411,1.867.952,8.619c3.326.371,5.293.643,5.293.643C407.51,488.822,413.224,501.275,416.736,515.186Z" transform="translate(-226.267 -226.126)" opacity="0.15"/>
      <path id="Path_167" data-name="Path 167" d="M366.814,328.372s-12.366,16.076-2.473,44.517,23.5,72.959,23.5,72.959l71.722,42.044,9.893-12.366L402.675,423.59s-2.473-93.981-14.839-97.69S366.814,328.372,366.814,328.372Z" transform="translate(-231.534 -181.161)" fill="#eefcfc"/>
      <path id="Path_168" data-name="Path 168" d="M246.836,547.043s17.312,35.861,24.732,32.151-18.549-40.808-18.549-40.808Z" transform="translate(-172.768 -291.63)" fill="#ffe8d3"/>
      <path id="Path_169" data-name="Path 169" d="M165.7,352.77l-65.54,54.41s-24.732,17.312,21.022,29.678,49.463,19.786,49.463,19.786,4.946-16.076,11.129-13.6L128.6,417.073,171.881,391.1Z" transform="translate(-93.485 -195.666)" fill="#eefcfc"/>
      <path id="Path_170" data-name="Path 170" d="M172.579,188.206a174.6,174.6,0,0,0,17.505-9.283c-.454-13.475,1.206-25.706,6.063-32.19,2.726-6.19,8.451-12.388,12.935-17.269,11.011-11.986,35.36-18.676,39.679-12.688,32.663.645,36.1,26.248,36.1,26.248-.17,10.709-11.3,11.048-21.05,10.658.873,7.311-1.454,14.907-8.191,18.276-12.884,6.442-16.75,14.817-10.308,20.615s18.038,21.259,2.577,25.125-17.394,11.6-12.884,14.817-10.307-5.8-10.307-5.8-2.577,15.461-16.106,11.6a8.138,8.138,0,0,1-3.615-2.562c-3.654,4.015-6.913,6.388-9.37,6.4-14.07.075-12.383-15.509-12.383-15.509s-16.7,4.69-11.489,2.8,5.434-9.852-8.412-17.742S164.812,192.052,172.579,188.206Z" transform="translate(-126.707 -72.504)" fill="#445f60"/>
      <path id="Path_171" data-name="Path 171" d="M545.308,283.733l-.224-.03.547,2.08a54.663,54.663,0,0,0,2.246,8.538l16.048,61.007a10.34,10.34,0,0,0,8.419,7.588l32.728,5.063a10.34,10.34,0,0,0,10.7-5.338l31.1-58.093a54.566,54.566,0,0,0,2.661-4.969l1.056-1.972-.165-.022a54.988,54.988,0,1,0-105.115-13.851Z" transform="translate(-326.807 -127.637)" fill="#445f60"/>
      <path id="Path_172" data-name="Path 172" d="M604.027,367.908a11.248,11.248,0,0,1-1.721-.132l-34.21-5.293A11.288,11.288,0,0,1,558.9,354.2l-16.775-63.768a57.49,57.49,0,0,1-2.356-8.963l-.424-2.79a57.972,57.972,0,0,1,66.36-64.656l-.148.955a57.027,57.027,0,0,0-65.172,64.2l.326,2.087a57.132,57.132,0,0,0,2.336,8.887l16.786,63.806a10.322,10.322,0,0,0,8.407,7.577l34.21,5.293a10.34,10.34,0,0,0,10.681-5.33l.852.456a11.312,11.312,0,0,1-9.959,5.961Z" transform="translate(-323.753 -123.581)" fill="#fff"/>
      <rect id="Rectangle_56" data-name="Rectangle 56" width="60.527" height="1.249" transform="translate(268.137 226.799) rotate(-69.885)" fill="#fff"/>
      <rect id="Rectangle_57" data-name="Rectangle 57" width="1.249" height="60.527" transform="translate(253.718 164.758) rotate(-2.516)" fill="#fff"/>
      <path id="Path_173" data-name="Path 173" d="M619.72,583.3l-43.836-6.781a1.249,1.249,0,1,1,.382-2.47l43.836,6.781a1.249,1.249,0,1,1-.382,2.47Z" transform="translate(-342.339 -310.058)" fill="#3f3d56"/>
      <path id="Path_174" data-name="Path 174" d="M622.047,564.022l-43.836-6.782a1.249,1.249,0,1,1,.382-2.47l43.836,6.782a1.249,1.249,0,0,1-.382,2.47Z" transform="translate(-343.542 -300.093)" fill="#3f3d56"/>
      <path id="Path_175" data-name="Path 175" d="M624.374,544.749l-43.836-6.782a1.249,1.249,0,1,1,.382-2.47l43.836,6.782a1.249,1.249,0,0,1-.382,2.47Z" transform="translate(-344.745 -290.129)" fill="#3f3d56"/>
      <path id="Path_176" data-name="Path 176" d="M604.419,590.236c8.7,1.345,16.494-2.41,17.418-8.388l-31.488-4.871C589.425,582.954,595.724,588.891,604.419,590.236Z" transform="translate(-350.318 -311.581)" fill="#3f3d56"/>
      <path id="Path_177" data-name="Path 177" d="M632.734,345.544a7.7,7.7,0,0,1-4.266-2.758c-.278-.325-.549-.662-.82-1a9.758,9.758,0,0,0-3.22-3c-2.867-1.338-6.246.531-9.171,2.536l-.707-1.03c3.216-2.2,6.967-4.242,10.407-2.638A10.829,10.829,0,0,1,628.621,341c.263.328.526.655.8.97.882,1.03,2.641,2.7,4.526,2.314a6.085,6.085,0,0,0,2.171-1.149,11.633,11.633,0,0,1,1.537-.97,6.119,6.119,0,0,1,6.717.949,12.089,12.089,0,0,1,.912.964,4.428,4.428,0,0,0,1.783,1.465c1.021.327,2.1-.257,3.244-.874a6.461,6.461,0,0,1,3.782-1.132l.135.018c2.461.381,3.6,3.1,4.238,5.134l-1.192.376c-.872-2.761-1.935-4.134-3.327-4.287a5.493,5.493,0,0,0-3.042.991c-1.322.714-2.691,1.452-4.217.965a5.4,5.4,0,0,1-2.344-1.832,11.016,11.016,0,0,0-.815-.866,4.91,4.91,0,0,0-5.319-.752,10.558,10.558,0,0,0-1.37.87,7.1,7.1,0,0,1-2.642,1.354A4.108,4.108,0,0,1,632.734,345.544Z" transform="translate(-362.876 -187.556)" fill="#fff"/>
    </g>
  </g>
</svg>
