<?xml version="1.0" encoding="utf-8"?>
<!-- Generator: Adobe Illustrator 16.0.0, SVG Export Plug-In . SVG Version: 6.00 Build 0)  -->
<!DOCTYPE svg PUBLIC "-//W3C//DTD SVG 1.1//EN" "http://www.w3.org/Graphics/SVG/1.1/DTD/svg11.dtd">
<svg version="1.1" id="Layer_1" xmlns="http://www.w3.org/2000/svg" xmlns:xlink="http://www.w3.org/1999/xlink" x="0px" y="0px"
	 width="240.5px" height="77.5px" viewBox="0 0 240.5 77.5" enable-background="new 0 0 240.5 77.5" xml:space="preserve">
<rect x="-12.486" y="-69.479" display="none" fill="#D1D3D4" width="294.986" height="170.27"/>
<linearGradient id="SVGID_1_" gradientUnits="userSpaceOnUse" x1="1.0264" y1="38.9668" x2="141.2285" y2="38.9668">
	<stop  offset="0" style="stop-color:#51B848"/>
	<stop  offset="1" style="stop-color:#91C851"/>
</linearGradient>
<path fill="url(#SVGID_1_)" d="M11.778,75.791c-5.938,0-10.751-6.42-10.751-14.342V16.484c0-7.922,4.814-14.342,10.751-14.342
	h129.451v73.648H11.778z"/>
<g>
	<path fill="#FFFFFF" d="M36.162,42.06c-0.57,3.208-2.056,8.543-4.456,16.004c0.689-0.617,1.64-1.746,2.852-3.386
		c0.166-0.214,0.333-0.321,0.499-0.321c0.38,0,0.428,0.334,0.143,0.998c-0.119,0.263-1.117,1.89-2.994,4.884
		c-1.426,2.281-2.472,4.302-3.137,6.06c-0.214,0.546-0.606,0.82-1.176,0.82s-1.343-0.274-2.317-0.82
		c-0.618-0.332-0.927-0.582-0.927-0.748c0-0.143,0.13-0.451,0.392-0.928c1.283-2.257,2.709-6.035,4.277-11.334
		c1.497-5.134,2.34-8.947,2.531-11.442c0.071-1.069-0.036-1.604-0.321-1.604c-0.214,0-0.594,0.262-1.141,0.783l-2.21,2.068
		c-0.784,0.713-1.176,0.748-1.176,0.106c0-0.19,0.107-0.428,0.321-0.713c1.117-1.568,2.305-3.054,3.564-4.456
		c0.38-0.403,0.749-0.605,1.105-0.605c0.38,0,0.938,0.262,1.675,0.784c1.093,0.285,1.699,0.464,1.818,0.534
		c0.546,0.334,0.82,0.951,0.82,1.854C36.304,41.025,36.256,41.514,36.162,42.06z M41.188,26.447c0.38,0.285,0.57,0.605,0.57,0.963
		c0,0.689-1.022,1.758-3.065,3.207c-1.354,0.928-2.662,1.26-3.921,0.998c-0.713-0.143-1.331-0.403-1.854-0.783
		c-0.167-0.143-0.292-0.291-0.375-0.446c-0.083-0.153-0.101-0.278-0.053-0.374c0.071-0.095,0.214-0.119,0.428-0.071
		c2.186-1.901,3.624-3.267,4.313-4.099c0.546-0.618,0.938-0.928,1.176-0.928C38.835,24.914,39.762,25.426,41.188,26.447z"/>
	<path fill="#FFFFFF" d="M67.03,53.608c-1.426,2.163-3.279,5.3-5.561,9.41c-0.428,1.069-0.844,2.139-1.248,3.208
		c-0.333,0.736-0.772,1.104-1.319,1.104c-0.428,0-1.058-0.178-1.889-0.534c-0.927-0.381-1.39-0.76-1.39-1.141
		c0-0.166,0.154-0.534,0.463-1.104c1.544-3.137,2.923-7.046,4.135-11.728c1.307-4.919,1.865-8.674,1.675-11.264
		c-0.048-1.045-0.285-1.568-0.713-1.568c-0.309,0-0.772,0.297-1.39,0.891c-5.988,5.846-11.169,13.665-15.541,23.454
		c-0.547,1.213-1.188,1.818-1.925,1.818c-0.523,0-1.39-0.297-2.602-0.891c-0.476-0.215-0.725-0.416-0.749-0.606
		c0-0.095,0.13-0.428,0.392-0.998c1.378-3.018,2.745-6.844,4.099-11.478c1.449-5.014,2.269-8.923,2.459-11.728
		c0.047-0.855,0.023-1.283-0.071-1.283c-0.024,0-0.356,0.321-0.998,0.963s-1.533,1.474-2.673,2.495
		c-0.214,0.214-0.452,0.321-0.713,0.321c-0.333,0-0.499-0.131-0.499-0.393c0-0.189,0.119-0.404,0.356-0.642
		c1.021-1.307,2.364-2.935,4.028-4.884c0.356-0.403,0.725-0.605,1.105-0.605c0.57,0,1.069,0.416,1.497,1.248
		c1.925,0.57,2.828,1.449,2.709,2.637c-0.262,2.615-1.604,7.332-4.028,14.151c1.592-3.065,3.909-6.493,6.951-10.283
		c3.042-3.79,5.299-6.03,6.772-6.72c0.736-0.332,1.259-0.498,1.568-0.498c0.309,0,0.808,0.262,1.497,0.783
		c1.972,0.689,2.946,1.83,2.923,3.422c0,1.664-0.404,4.338-1.212,8.021c-0.642,3.042-1.236,5.406-1.782,7.094
		c0.689-0.879,1.568-2.02,2.638-3.422c0.19-0.237,0.38-0.357,0.57-0.357c0.356,0,0.535,0.227,0.535,0.678
		C67.101,53.323,67.077,53.466,67.03,53.608z"/>
	<path fill="#FFFFFF" d="M81.822,58.206c0.071,2.852-1.509,4.801-4.741,5.846c-0.404,0.998-0.784,1.688-1.141,2.068
		c-0.547,0.57-1.354,0.902-2.424,0.998c-0.689,0.047-1.426,0.011-2.21-0.107c-1.402-0.214-3.125-0.476-5.168-0.784
		c-0.57-0.095-0.915-0.439-1.034-1.034c0.095-0.641,0.761-1.021,1.996-1.141c1.688-0.118,4.182-0.415,7.485-0.891
		c1.235-0.285,2.115-0.985,2.638-2.104c0.309-0.57,0.463-1.271,0.463-2.103c0-1.497-0.749-4.135-2.246-7.913
		c-1.474-3.683-2.163-6.143-2.067-7.378c0.19-2.971,2.935-5.038,8.234-6.203c0.522-0.118,0.784,0.072,0.784,0.57
		c0,0.285-0.19,0.512-0.57,0.678c-2.566,1.117-3.85,2.495-3.85,4.135c0,0.642,0.119,1.443,0.356,2.406
		c0.237,0.962,0.95,3.273,2.139,6.933C81.347,54.82,81.798,56.829,81.822,58.206z M87.525,37.746c0,1.07-0.285,2.781-0.855,5.133
		c-0.214,0.809-0.452,1.332-0.713,1.568c-0.119,0.119-0.523,0.298-1.212,0.535c-0.879,0.333-1.426,0.499-1.64,0.499
		c-0.356,0-0.535-0.237-0.535-0.713c0-0.261,0.047-0.606,0.143-1.034c0.57-2.352,0.79-3.985,0.659-4.9
		c-0.131-0.914,0.137-1.491,0.802-1.729c1.164-0.594,1.913-0.892,2.246-0.892C87.157,36.214,87.525,36.725,87.525,37.746z"/>
	<path fill="#FFFFFF" d="M116.896,10.978c0.309,0.238,0.463,0.499,0.463,0.784c0,0.428-0.273,0.642-0.82,0.642
		c-0.238,0-0.487-0.071-0.749-0.214c-1.093-0.546-1.913-0.82-2.459-0.82c-1.45,0-3.065,1.45-4.848,4.349
		c-6.273,10.218-10.919,23.596-13.937,40.136c3.873-7.438,8.305-13.379,13.295-17.823c1.069-0.949,1.854-1.426,2.353-1.426
		c0.143,0,0.736,0.334,1.782,0.998c1.259,0.523,1.972,0.855,2.139,0.998c0.618,0.547,0.927,1.498,0.927,2.852
		c0,0.381-0.024,0.797-0.071,1.248c-0.404,4.23-1.616,9.352-3.636,15.362c0.736-0.998,1.901-2.459,3.493-4.384
		c0.38-0.403,0.701-0.606,0.962-0.606c0.261,0,0.392,0.155,0.392,0.464c0,0.356-0.155,0.761-0.463,1.212
		c-1.378,1.996-3.208,4.919-5.489,8.769c-0.19,0.381-0.654,1.379-1.39,2.994c-0.309,0.76-0.737,1.141-1.283,1.141
		c-0.618,0-1.509-0.416-2.673-1.247c-0.476-0.333-0.559-0.855-0.25-1.568c4.087-10.266,6.25-17.93,6.487-22.991
		c0.071-1.449-0.131-2.174-0.606-2.174c-0.309,0-0.962,0.404-1.96,1.211c-1.83,1.475-4.076,4.088-6.737,7.843
		c-3.517,4.942-6.238,9.992-8.163,15.148c-0.523,1.474-1.01,2.21-1.461,2.21c-0.404,0-1.2-0.486-2.388-1.462
		c-0.594-0.498-0.796-1.33-0.606-2.494c2.756-15.09,6.345-27.981,10.765-38.675c3.279-7.96,6.238-13.165,8.875-15.612
		c0.665-0.618,1.319-0.927,1.96-0.927c0.665,0,1.509,0.38,2.531,1.141C114.52,9.029,115.708,10.003,116.896,10.978z"/>
</g>
<path fill="#FFFFFF" stroke="#D1D3D4" stroke-miterlimit="10" d="M231.498,75.791c4.255,0,7.705-6.42,7.705-14.342V16.485
	c0-7.922-3.45-14.342-7.705-14.342h-92.781v73.648H231.498z"/>
<g>
	<path fill="#414042" d="M152.432,55.346l5.58-0.941c0.433-0.086,0.773-0.297,1.022-0.633c0.249-0.335,0.373-0.74,0.373-1.217
		V33.219v-3.311l0.065-1.07l-8.176,2.238v-1.719l11.906-5.58h1.979c-0.043,0.691-0.08,1.476-0.113,2.352
		c-0.032,0.876-0.06,1.779-0.08,2.709c-0.022,0.931-0.039,1.85-0.049,2.758c-0.012,0.908-0.017,1.742-0.017,2.498v18.461
		c0,0.498,0.124,0.909,0.373,1.233s0.589,0.53,1.022,0.616l5.191,0.941v1.524h-19.078V55.346z"/>
	<path fill="#414042" d="M177.414,53.626c0-0.541,0.107-1.055,0.324-1.541c0.216-0.487,0.508-0.914,0.875-1.282
		c0.368-0.367,0.795-0.653,1.282-0.859c0.487-0.205,1.011-0.309,1.573-0.309c0.541,0,1.055,0.104,1.541,0.309
		c0.486,0.206,0.908,0.492,1.266,0.859c0.357,0.368,0.644,0.795,0.859,1.282c0.217,0.486,0.324,1,0.324,1.541
		s-0.107,1.054-0.324,1.541c-0.216,0.486-0.502,0.908-0.859,1.265c-0.357,0.357-0.779,0.644-1.266,0.86
		c-0.486,0.216-1,0.324-1.541,0.324c-0.563,0-1.086-0.108-1.573-0.324c-0.487-0.217-0.914-0.503-1.282-0.86
		c-0.367-0.356-0.659-0.778-0.875-1.265C177.521,54.68,177.414,54.167,177.414,53.626z"/>
	<path fill="#414042" d="M207.846,57.746c-2.293,0-4.369-0.405-6.229-1.217c-1.861-0.811-3.451-1.957-4.77-3.438
		c-1.32-1.481-2.342-3.271-3.066-5.37c-0.725-2.098-1.086-4.434-1.086-7.008c0-2.357,0.356-4.58,1.07-6.668
		c0.713-2.086,1.735-3.903,3.066-5.45c1.33-1.546,2.951-2.769,4.866-3.666c1.914-0.897,4.071-1.347,6.473-1.347
		c2.595,0,4.845,0.471,6.748,1.412c1.903,0.94,3.478,2.201,4.721,3.779c1.243,1.579,2.169,3.391,2.774,5.434
		c0.605,2.045,0.908,4.17,0.908,6.376c0,2.38-0.346,4.607-1.038,6.684s-1.704,3.894-3.034,5.45c-1.33,1.558-2.952,2.785-4.866,3.683
		S210.29,57.746,207.846,57.746z M208.333,55.604c1.146,0,2.163-0.216,3.05-0.648s1.654-1.011,2.303-1.736
		c0.649-0.724,1.195-1.567,1.639-2.53c0.443-0.962,0.801-1.974,1.071-3.033s0.465-2.136,0.584-3.229
		c0.118-1.092,0.179-2.146,0.179-3.163c0-1.233-0.076-2.472-0.228-3.716c-0.151-1.242-0.39-2.443-0.714-3.601
		s-0.735-2.239-1.232-3.245c-0.498-1.006-1.099-1.881-1.801-2.627c-0.703-0.746-1.509-1.33-2.418-1.752
		c-0.908-0.422-1.925-0.633-3.049-0.633c-1.146,0-2.164,0.211-3.051,0.633s-1.654,0.994-2.303,1.719s-1.195,1.568-1.639,2.531
		s-0.801,1.974-1.07,3.033c-0.271,1.061-0.466,2.137-0.584,3.229c-0.119,1.092-0.179,2.146-0.179,3.163
		c0,1.104,0.065,2.25,0.194,3.439c0.13,1.189,0.341,2.363,0.633,3.52c0.292,1.157,0.682,2.261,1.168,3.31
		c0.486,1.05,1.076,1.969,1.769,2.758c0.692,0.79,1.509,1.417,2.449,1.882C206.045,55.373,207.121,55.604,208.333,55.604z"/>
</g>
<g>
</g>
<g>
</g>
<g>
</g>
<g>
</g>
<g>
</g>
<g>
</g>
</svg>
